<?xml version="1.0" encoding="utf-8"?>
<!-- Generator: Adobe Illustrator 16.0.0, SVG Export Plug-In . SVG Version: 6.00 Build 0)  -->
<!DOCTYPE svg PUBLIC "-//W3C//DTD SVG 1.1//EN" "http://www.w3.org/Graphics/SVG/1.1/DTD/svg11.dtd">
<svg version="1.1" id="Capa_1" xmlns="http://www.w3.org/2000/svg" xmlns:xlink="http://www.w3.org/1999/xlink" x="0px" y="0px"
	 width="150px" height="150px" viewBox="0 0 150 150" enable-background="new 0 0 150 150" xml:space="preserve">
<g display="none">
	<g display="inline">
		<g>
			<g>
				<path fill="#000388" d="M45.426,72.29c-4.38,0-7.812-5.229-7.812-11.906c0-6.676,3.432-11.904,7.812-11.904
					s7.812,5.228,7.812,11.904C53.238,67.06,49.806,72.29,45.426,72.29z M45.426,52.161c-1.95,0-4.13,3.517-4.13,8.223
					c0,4.707,2.181,8.223,4.13,8.223c1.949,0,4.13-3.516,4.13-8.223C49.556,55.678,47.375,52.161,45.426,52.161z"/>
			</g>
			<g>
				<path fill="#000388" d="M105.133,72.29c-4.381,0-7.812-5.229-7.812-11.906c0-6.676,3.431-11.904,7.812-11.904
					c4.38,0,7.813,5.228,7.813,11.904C112.945,67.06,109.513,72.29,105.133,72.29z M105.133,52.161
					c-1.949,0-4.129,3.517-4.129,8.223c0,4.707,2.18,8.223,4.129,8.223c1.95,0,4.13-3.516,4.13-8.223
					C109.263,55.678,107.083,52.161,105.133,52.161z"/>
			</g>
		</g>
		<g>
			<path fill="#000388" d="M75.558,111.073c-12.246,0-23.382-6.482-28.369-16.514c-1.418-2.854-1.265-6.172,0.412-8.881
				c1.672-2.697,4.565-4.309,7.74-4.309h40.436c3.174,0,6.068,1.611,7.739,4.309c1.678,2.709,1.831,6.027,0.413,8.881
				C98.938,104.591,87.803,111.073,75.558,111.073z M55.34,85.052c-1.891,0-3.614,0.961-4.609,2.568
				c-1.001,1.613-1.093,3.594-0.246,5.299c4.371,8.791,14.212,14.471,25.072,14.471c10.859,0,20.701-5.68,25.072-14.471
				c0.849-1.705,0.756-3.686-0.245-5.299c-0.995-1.607-2.718-2.568-4.609-2.568H55.34z"/>
		</g>
	</g>
	<g display="inline">
		<path fill="#000388" d="M75.278,138.228c-34.863,0-63.227-28.363-63.227-63.229c0-34.863,28.364-63.227,63.227-63.227
			c34.865,0,63.229,28.364,63.229,63.227C138.507,109.864,110.144,138.228,75.278,138.228z M75.278,15.454
			c-32.833,0-59.545,26.712-59.545,59.545c0,32.836,26.712,59.547,59.545,59.547c32.835,0,59.546-26.711,59.546-59.547
			C134.824,42.166,108.113,15.454,75.278,15.454z"/>
	</g>
</g>
<g display="none">
	<g display="inline">
		<path fill="#000388" d="M75.557,138.341c-34.927,0-63.341-28.416-63.341-63.342c0-34.925,28.415-63.34,63.341-63.34
			c34.926,0,63.342,28.415,63.342,63.34C138.899,109.925,110.483,138.341,75.557,138.341z M75.557,15.347
			c-32.893,0-59.653,26.76-59.653,59.651c0,32.894,26.76,59.654,59.653,59.654s59.653-26.76,59.653-59.654
			C135.21,42.107,108.45,15.347,75.557,15.347z"/>
	</g>
	<g display="inline">
		<g>
			<g>
				<path fill="#000388" d="M96.247,98.75c-0.395,0-0.794-0.069-1.18-0.209h-0.002l-11.051-4.044
					c-5.627-2.059-11.82-2.048-17.442,0.027l-10.834,4.004c-1.139,0.419-2.38,0.215-3.32-0.546
					c-0.951-0.768-1.417-1.952-1.242-3.169c1.559-10.904,11.972-19.129,24.221-19.129c12.255,0,22.669,8.228,24.222,19.139
					c0.174,1.214-0.289,2.397-1.238,3.167C97.761,98.491,97.012,98.75,96.247,98.75z M75.331,89.271
					c3.372,0,6.742,0.589,9.952,1.761L95.9,94.918c-1.506-8.893-10.236-15.545-20.504-15.545c-10.262,0-18.99,6.647-20.502,15.534
					l10.4-3.842C68.528,89.869,71.931,89.271,75.331,89.271z"/>
			</g>
			<g>
				<g>
					<path fill="#000388" d="M52.483,68.553c-3.623,0-6.459-4.226-6.459-9.622s2.837-9.623,6.459-9.623
						c3.622,0,6.459,4.227,6.459,9.623S56.105,68.553,52.483,68.553z M52.483,52.996c-1.13,0-2.771,2.312-2.771,5.935
						c0,3.622,1.641,5.934,2.771,5.934c1.129,0,2.771-2.312,2.771-5.934C55.253,55.308,53.612,52.996,52.483,52.996z"/>
				</g>
				<g>
					<path fill="#000388" d="M98.633,68.553c-3.622,0-6.459-4.226-6.459-9.622s2.837-9.623,6.459-9.623
						c3.621,0,6.459,4.227,6.459,9.623S102.254,68.553,98.633,68.553z M98.633,52.996c-1.13,0-2.771,2.312-2.771,5.935
						c0,3.622,1.642,5.934,2.771,5.934c1.129,0,2.771-2.312,2.771-5.934C101.403,55.308,99.762,52.996,98.633,52.996z"/>
				</g>
			</g>
		</g>
		<g>
			<g>
				<path fill="#000388" d="M60.409,55.574c-0.726,0-1.413-0.43-1.706-1.143c-3.075-7.465-10.854-12.943-18.918-13.321
					c-1.017-0.047-1.803-0.911-1.756-1.928c0.048-1.017,0.922-1.799,1.929-1.755c9.594,0.45,18.498,6.719,22.156,15.601
					c0.389,0.941-0.061,2.019-1.003,2.408C60.88,55.528,60.643,55.574,60.409,55.574z"/>
			</g>
			<g>
				<path fill="#000388" d="M90.706,55.574c-0.234,0-0.473-0.045-0.702-0.139c-0.941-0.389-1.392-1.466-1.003-2.408
					c3.657-8.882,12.563-15.151,22.156-15.601c1.045-0.056,1.881,0.739,1.929,1.755c0.047,1.017-0.739,1.881-1.756,1.928
					c-8.064,0.378-15.844,5.856-18.918,13.321C92.118,55.144,91.43,55.574,90.706,55.574z"/>
			</g>
		</g>
	</g>
</g>
<g display="none">
	<circle display="inline" fill="#FFC10E" cx="75.396" cy="75.231" r="63.572"/>
	<g display="inline">
		<path fill="#333333" d="M40.499,34.727c6.745,5.049,13.489,10.097,20.234,15.146c2.594,1.942,5.091-2.419,2.532-4.334
			c-6.745-5.047-13.489-10.097-20.234-15.145C40.438,28.452,37.94,32.812,40.499,34.727L40.499,34.727z"/>
		<path fill="#333333" d="M107.41,30.394c-6.745,5.047-13.489,10.097-20.234,15.145c-2.558,1.916-0.061,6.276,2.533,4.334
			c6.744-5.048,13.489-10.098,20.233-15.145C112.501,32.812,110.004,28.452,107.41,30.394L107.41,30.394z"/>
		<circle fill="#333333" cx="56.072" cy="53.304" r="9.984"/>
		<circle fill="#333333" cx="93.827" cy="53.304" r="9.984"/>
	</g>
	<path display="inline" fill="#FFFFFF" d="M117.126,112.99c0-23.047-18.683-41.732-41.733-41.732
		c-23.048,0-41.732,18.685-41.732,41.732H117.126z"/>
	<g display="inline">
		<path fill="#CCCBCB" d="M93.965,112.99c0-12.456,0-24.913,0-37.372c-1.615-0.804-3.292-1.503-5.02-2.097
			c0,13.156,0,26.314,0,39.469H93.965L93.965,112.99z"/>
		<path fill="#CCCBCB" d="M62.955,112.99c0-13.28,0-26.563,0-39.845c-1.725,0.538-3.397,1.195-5.02,1.942
			c0,12.636,0,25.271,0,37.906h5.02V112.99z"/>
	</g>
</g>
<g display="none">
	<circle display="inline" fill="#FFC10E" cx="75.396" cy="75.23" r="64"/>
	<path display="inline" fill="#FFFFFF" d="M33.379,75.273c0,23.203,18.811,42.013,42.014,42.013
		c23.204,0,42.015-18.81,42.015-42.013H33.379L33.379,75.273z"/>
	<g display="inline">
		<path fill="#CCCBCB" d="M56.696,75.273c0,12.541,0,25.083,0,37.623c1.627,0.812,3.315,1.516,5.054,2.112
			c0-13.245,0-26.49,0-39.735H56.696z"/>
		<path fill="#CCCBCB" d="M87.915,75.273c0,13.372,0,26.742,0,40.114c1.737-0.541,3.422-1.202,5.054-1.955
			c0-12.721,0-25.438,0-38.159H87.915L87.915,75.273z"/>
	</g>
	<g display="inline">
		<path fill="#333333" d="M70.594,54.117c-0.456-8.442-6.48-14.465-14.921-14.92c-8.422-0.453-14.503,7.162-14.92,14.92
			c-0.176,3.258,4.877,3.241,5.052,0c0.685-12.719,19.051-12.719,19.735,0C65.715,57.358,70.77,57.375,70.594,54.117L70.594,54.117z
			"/>
		<path fill="#333333" d="M107.001,54.117c-0.455-8.442-6.479-14.465-14.92-14.92c-8.422-0.453-14.502,7.162-14.919,14.92
			c-0.178,3.258,4.877,3.241,5.052,0c0.686-12.719,19.05-12.719,19.735,0C102.124,57.358,107.178,57.375,107.001,54.117
			L107.001,54.117z"/>
	</g>
</g>
<path display="none" fill="#009B7A" d="M103.36,54.944c1.952,1.956,1.952,5.123,0,7.076L69.799,95.581
	c-1.954,1.953-5.121,1.953-7.075,0L46.748,79.604c-1.954-1.952-1.954-5.119,0-7.072c1.954-1.956,5.121-1.956,7.074,0L66.26,84.969
	l30.025-30.024C98.239,52.992,101.407,52.992,103.36,54.944z M139.088,75.263c0,35.394-28.647,64.034-64.034,64.034
	c-35.395,0-64.034-28.646-64.034-64.034c0-35.395,28.643-64.033,64.034-64.033C110.446,11.23,139.088,39.873,139.088,75.263z
	 M129.082,75.263c0-29.864-24.167-54.028-54.028-54.028c-29.865,0-54.029,24.168-54.029,54.028
	c0,29.864,24.167,54.028,54.029,54.028C104.919,129.291,129.082,105.123,129.082,75.263z"/>
<path display="none" fill="#D75A4A" d="M103.22,46.835c-1.425-1.425-3.712-1.425-5.139,0L75.055,69.863L52.027,46.835
	c-1.425-1.425-3.712-1.425-5.138,0c-1.426,1.425-1.426,3.712,0,5.139L69.916,75L46.889,98.027c-1.426,1.427-1.426,3.714,0,5.138
	c0.699,0.701,1.641,1.077,2.555,1.077c0.915,0,1.857-0.35,2.556-1.077L75.027,80.14l23.027,23.025
	c0.699,0.701,1.641,1.077,2.556,1.077c0.94,0,1.856-0.35,2.556-1.077c1.426-1.424,1.426-3.711,0-5.138L80.192,75l23.027-23.026
	C104.646,50.547,104.646,48.261,103.22,46.835z"/>
<g display="none">
	<path display="inline" fill="#D75A4A" d="M75.396,12.053c-34.806,0-63.125,28.316-63.125,63.125s28.319,63.125,63.125,63.125
		c34.807,0,63.125-28.316,63.125-63.125S110.203,12.053,75.396,12.053z M75.396,133.447c-32.128,0-58.269-26.142-58.269-58.27
		c0-32.129,26.141-58.27,58.269-58.27c32.129,0,58.269,26.141,58.269,58.27C133.665,107.306,107.525,133.447,75.396,133.447z"/>
</g>
<polygon fill="#FF0D0D" points="72.912,55 77.175,63.64 86.71,65.025 79.811,71.749 81.439,81.246 72.912,76.764 64.383,81.246 
	66.012,71.749 59.112,65.025 68.647,63.64 "/>
</svg>
