<?xml version="1.0" encoding="utf-8"?>
<!-- Generator: Adobe Illustrator 16.0.0, SVG Export Plug-In . SVG Version: 6.00 Build 0)  -->
<!DOCTYPE svg PUBLIC "-//W3C//DTD SVG 1.1//EN" "http://www.w3.org/Graphics/SVG/1.1/DTD/svg11.dtd">
<svg version="1.1" id="Capa_1" xmlns="http://www.w3.org/2000/svg" xmlns:xlink="http://www.w3.org/1999/xlink" x="0px" y="0px"
	 width="1600px" height="769.253px" viewBox="0 0 1600 769.253" enable-background="new 0 0 1600 769.253" xml:space="preserve">
<g id="Bg" transform="translate(0 1.24)">
	<path id="_4" opacity="0.839" fill="#0572CC" enable-background="new    " d="M0-0.99c533.3,0.876,1067,15.237,1599.876,0
		c0.004,256.317,0.004,512.644,0,768.982c-72.87-123.145-139.669-179.523-208.091-211.064
		c-67.934-30.877-135.374-41.568-202.5-48.516c-134.279-13.879-267.214-7.846-399.424,13.6
		c-66.104,11.189-132.062,24.824-197.9,46.039c-65.837,20.754-131.573,49.143-197.226,79.07
		c-65.659,30.148-131.166,61.057-196.741,83.852c-32.8,11.416-65.625,20.838-98.588,27.318c-16.482,3.24-33,5.75-49.563,7.404
		c-8.282,0.828-16.576,1.439-24.883,1.832c-4.153,0.193-8.31,0.33-12.471,0.408c-4.161,0.08-8.324,0.098-12.49,0.057V-0.99z"/>
	<path id="_3" opacity="0.839" fill="#0E63AA" enable-background="new    " d="M0-0.99c533.362,0.889,1066.962,15.154,1600,0
		c0,256.326,0,512.654,0,768.982c-75.166-158.102-151.584-219.457-223.02-259.02c-71.959-37.459-141.564-51.6-209.861-60.416
		c-136.562-17.035-267.745-7.582-396.589,19.434c-64.4,14.018-128.238,31.443-191.681,56.77
		c-63.463,24.908-126.492,58.051-189.811,93.77c-63.3,35.826-127.008,73.6-191.8,102.238c-32.385,14.313-65.023,26.314-97.9,34.625
		c-16.297,4.156-32.826,7.344-49.5,9.545c-8.278,1.076-16.571,1.875-24.878,2.4c-4.153,0.256-8.31,0.441-12.471,0.553
		S4.166,768.035,0,767.992V-0.99z"/>
	<path id="_2" opacity="0.722" fill="#0054A3" enable-background="new    " d="M0-1.24h1600V767c-589.591-893-1066.667,0-1600,0
		V-1.24z"/>
</g>
</svg>
