<?xml version="1.0" encoding="utf-8"?>
<!-- Generator: Adobe Illustrator 16.0.0, SVG Export Plug-In . SVG Version: 6.00 Build 0)  -->
<!DOCTYPE svg PUBLIC "-//W3C//DTD SVG 1.1//EN" "http://www.w3.org/Graphics/SVG/1.1/DTD/svg11.dtd">
<svg version="1.1" id="Capa_1" xmlns="http://www.w3.org/2000/svg" xmlns:xlink="http://www.w3.org/1999/xlink" x="0px" y="0px"
	 width="1200px" height="150px" viewBox="0 0 1200 150" enable-background="new 0 0 1200 150" xml:space="preserve">
<path fill="#009B7A" d="M948.77,139.76c-71.173-7.866-140.186-26.715-231.16-74.209c-35.526-18.85-92.298-46.01-120.623-53.282
	c-28.325-7.273-63.131-11.577-90.617-7.866c-12.242,1.633-27.124,2.078-60.13,10.983c-32.646,9.35-69.852,24.638-95.297,36.659
	c-49.568,23.599-113.9,32.504-160.83,33.542C86.416,87.962,0,39.874,0,39.874V150h1200.215V98.5c0,0-61.811,28.793-127.461,38.143
	C1007.581,145.549,977.096,142.877,948.77,139.76z"/>
</svg>
